{"title":"Pain.And.Gain.2013.BRRip.x264.1080p.Hun.Eng","uid":9312377,"size":4316082505,"categoryP":"video","categoryS":"hd___movies","magnet":"?xt=urn:btih:feb61d14611124b69902bc828bf95addea21d3dc&amp;dn=Pain.And.Gain.2013.BRRip.x264.1080p.Hun.Eng&amp;tr=udp%3A%2F%2Ftracker.openbittorrent.com%3A80&amp;tr=udp%3A%2F%2Fopen.demonii.com%3A1337&amp;tr=udp%3A%2F%2Ftracker.coppersurfer.tk%3A6969&amp;tr=udp%3A%2F%2Fexodus.desync.com%3A6969","seeders":0,"leechers":0,"uploader":"rinoceros","files":-1,"time":1386423095,"description":"Pain.And.Gain.2013.BRRip.x264.1080p.Hun.Eng\n\nGeneral\nUnique ID                                : 233558258943053540367238245624362412751 (0xAFB5AF392585AE7AB7D7AD0E1045AACF)\nComplete name                            : F:Pain.And.Gain.2013.BRRip.x264.1080p.Hun.EngPain And Gain (2013) 1080p.mkv\nFormat                                   : Matroska\nFormat version                           : Version 4 / Version 2\nFile size                                : 4.02 GiB\nDuration                                 : 2h 9mn\nOverall bit rate                         : 4 440 Kbps\nEncoded date                             : UTC 2013-12-07 11:29:09\nWriting application                      : mkvmerge v6.6.0 ('The Edge Of The In Between') built on Dec  1 2013 17:55:00\nWriting library                          : libebml v1.3.0 + libmatroska v1.4.1\n\nVideo\nID                                       : 1\nFormat                                   : AVC\nFormat/Info                              : Advanced Video Codec\nFormat profile                           : &lt;a class=&quot;__cf_email__&quot; href=&quot;/cdn-cgi/l/email-protection&quot; data-cfemail=&quot;93dbfaf4fbd3dfa7bda2&quot;&gt;[email&amp;#160;protected]&lt;/a&gt;&lt;script data-cfhash='f9e31' type=&quot;text/javascript&quot;&gt;\n/* &lt;![CDATA[ */!function(){try{var t=&quot;currentScript&quot;in document?document.currentScript:function(){for(var t=document.getElementsByTagName(&quot;script&quot;),e=t.length;e--;)if(t[e].getAttribute(&quot;data-cfhash&quot;))return t[e]}();if(t&amp;&amp;t.previousSibling){var e,r,n,i,c=t.previousSibling,a=c.getAttribute(&quot;data-cfemail&quot;);if(a){for(e=&quot;&quot;,r=parseInt(a.substr(0,2),16),n=2;a.length-n;n+=2)i=parseInt(a.substr(n,2),16)^r,e+=String.fromCharCode(i);e=document.createTextNode(e),c.parentNode.replaceChild(e,c)}t.parentNode.removeChild(t);}}catch(u){}}()/* ]]&gt; */&lt;/script&gt;\nFormat settings, CABAC                   : Yes\nFormat settings, ReFrames                : 5 frames\nCodec ID                                 : V_MPEG4/ISO/AVC\nDuration                                 : 2h 9mn\nBit rate                                 : 3 350 Kbps\nWidth                                    : 1 920 pixels\nHeight                                   : 800 pixels\nDisplay aspect ratio                     : 2.40:1\nFrame rate mode                          : Constant\nFrame rate                               : 23.976 fps\nColor space                              : YUV\nChroma subsampling                       : 4:2:0\nBit depth                                : 8 bits\nScan type                                : Progressive\nBits/(Pixel*Frame)                       : 0.091\nStream size                              : 2.95 GiB (74%)\nTitle                                    : Pain And Gain (2013) 1080p\nWriting library                          : x264 core 133 r2334 a3ac64b\nEncoding settings                        : cabac=1 / ref=5 / deblock=1:0:0 / analyse=0x3:0x113 / me=hex / subme=7 / psy=1 / psy_rd=1.00:0.00 / mixed_ref=1 / me_range=16 / chroma_me=1 / trellis=1 / 8x8dct=1 / cqm=2 / deadzone=21,11 / fast_pskip=0 / chroma_qp_offset=-2 / threads=3 / lookahead_threads=1 / sliced_threads=0 / nr=0 / decimate=0 / interlaced=0 / bluray_compat=0 / constrained_intra=0 / bframes=7 / b_pyramid=2 / b_adapt=1 / b_bias=0 / direct=3 / weightb=0 / open_gop=0 / weightp=2 / keyint=240 / keyint_min=23 / scenecut=40 / intra_refresh=0 / rc_lookahead=40 / rc=2pass / mbtree=1 / bitrate=3350 / ratetol=1.0 / qcomp=0.60 / qpmin=1 / qpmax=63 / qpstep=4 / cplxblur=20.0 / qblur=0.5 / vbv_maxrate=62500 / vbv_bufsize=78125 / nal_hrd=none / ip_ratio=1.40 / aq=1:1.00\nDefault                                  : Yes\nForced                                   : No\n\nAudio #1\nID                                       : 2\nFormat                                   : AC-3\nFormat/Info                              : Audio Coding 3\nMode extension                           : CM (complete main)\nFormat settings, Endianness              : Big\nCodec ID                                 : A_AC3\nDuration                                 : 2h 9mn\nBit rate mode                            : Constant\nBit rate                                 : 640 Kbps\nChannel count                            : 6 channels\nChannel positions                        : Front: L C R, Side: L R, LFE\nSampling rate                            : 48.0 KHz\nBit depth                                : 16 bits\nCompression mode                         : Lossy\nStream size                              : 593 MiB (14%)\nTitle                                    : 5.1\nLanguage                                 : Hungarian\nDefault                                  : Yes\nForced                                   : No\n\nAudio #2\nID                                       : 3\nFormat                                   : AC-3\nFormat/Info                              : Audio Coding 3\nMode extension                           : CM (complete main)\nFormat settings, Endianness              : Big\nCodec ID                                 : A_AC3\nDuration                                 : 2h 9mn\nBit rate mode                            : Constant\nBit rate                                 : 448 Kbps\nChannel count                            : 6 channels\nChannel positions                        : Front: L C R, Side: L R, LFE\nSampling rate                            : 48.0 KHz\nBit depth                                : 16 bits\nCompression mode                         : Lossy\nStream size                              : 415 MiB (10%)\nTitle                                    : 5.1\nLanguage                                 : English\nDefault                                  : No\nForced                                   : No\n\nText #1\nID                                       : 4\nFormat                                   : UTF-8\nCodec ID                                 : S_TEXT/UTF8\nCodec ID/Info                            : UTF-8 Plain Text\nTitle                                    : full\nLanguage                                 : Hungarian\nDefault                                  : Yes\nForced                                   : No\n\nText #2\nID                                       : 5\nFormat                                   : UTF-8\nCodec ID                                 : S_TEXT/UTF8\nCodec ID/Info                            : UTF-8 Plain Text\nTitle                                    : full\nLanguage                                 : English\nDefault                                  : No\nForced                                   : No\n &lt;a href=&quot;\nhttp://port.hu/pain_&amp;_gain/pls/fi/films.film_page?i_topic_id=2&amp;i_film_id=138031&amp;i_city_id=-1&amp;i_county_id=-1&quot; rel=&quot;nofollow&quot; target=&quot;_NEW&quot;&gt;\nhttp://port.hu/pain_&amp;_gain/pls/fi/films.film_page?i_topic_id=2&amp;i_film_id=138031&amp;i_city_id=-1&amp;i_county_id=-1&lt;/a&gt;","torrent":{"xt":"urn:btih:feb61d14611124b69902bc828bf95addea21d3dc","amp;dn":"Pain.And.Gain.2013.BRRip.x264.1080p.Hun.Eng","amp;tr":["udp%3A%2F%2Ftracker.openbittorrent.com%3A80","udp%3A%2F%2Fopen.demonii.com%3A1337","udp%3A%2F%2Ftracker.coppersurfer.tk%3A6969","udp%3A%2F%2Fexodus.desync.com%3A6969"],"infoHash":"feb61d14611124b69902bc828bf95addea21d3dc","infoHashBuffer":{"type":"Buffer","data":[254,182,29,20,97,17,36,182,153,2,188,130,139,249,90,221,234,33,211,220]},"announce":[],"urlList":[]}}